<?xml version="1.0" encoding="utf-8"?>
<!-- Generator: Adobe Illustrator 17.1.0, SVG Export Plug-In . SVG Version: 6.00 Build 0)  -->
<!DOCTYPE svg PUBLIC "-//W3C//DTD SVG 1.1//EN" "http://www.w3.org/Graphics/SVG/1.1/DTD/svg11.dtd">
<svg version="1.1" id="Capa_1" xmlns="http://www.w3.org/2000/svg" xmlns:xlink="http://www.w3.org/1999/xlink" x="0px" y="0px"
	 viewBox="0 0 43.7 52.8" style="enable-background:new 0 0 43.7 52.8;" xml:space="preserve">
<path style="fill:#374140;" d="M21.8,52.8c-5.8,0-11.3-2.3-15.5-6.4c-8.5-8.5-8.5-22.4,0-30.9L21.8,0l15.5,15.5
	c8.5,8.5,8.5,22.4,0,30.9C33.2,50.5,27.7,52.8,21.8,52.8z M31.8,40.9c2.7-2.7,4.1-6.2,4.1-10c0-0.8-0.7-1.5-1.5-1.5S33,30.1,33,30.9
	c0,3-1.2,5.8-3.3,7.9c-2.1,2.1-4.9,3.3-7.9,3.3c-3,0-5.8-1.2-7.9-3.3c-2.1-2.1-3.3-4.9-3.3-7.9c0-0.8-0.7-1.5-1.5-1.5
	c-0.8,0-1.5,0.7-1.5,1.5c0,3.8,1.5,7.3,4.1,10c2.7,2.7,6.2,4.1,10,4.1C25.6,45,29.2,43.6,31.8,40.9z M21.8,27 M25.3,30.9
	c0-0.8-0.7-1.5-1.5-1.5h-2.4V19.2c0-0.8-0.7-1.5-1.5-1.5c-0.8,0-1.5,0.7-1.5,1.5v13.2h5.4C24.6,32.4,25.3,31.7,25.3,30.9z"/>
</svg>
